<svg width="1200" height="520" viewBox="0 0 1200 520" fill="none" xmlns="http://www.w3.org/2000/svg">
  <defs>
    <linearGradient id="bg" x1="0" y1="0" x2="1200" y2="520" gradientUnits="userSpaceOnUse">
      <stop stop-color="#F1FAF4"/>
      <stop offset="0.45" stop-color="#EAF3FF"/>
      <stop offset="1" stop-color="#F6F1FF"/>
    </linearGradient>
    <radialGradient id="sun" cx="0" cy="0" r="1" gradientUnits="userSpaceOnUse" gradientTransform="translate(950 90) rotate(135) scale(220 220)">
      <stop stop-color="#FFC857" stop-opacity="0.9"/>
      <stop offset="1" stop-color="#FFC857" stop-opacity="0"/>
    </radialGradient>
    <filter id="soft" x="-20%" y="-20%" width="140%" height="140%">
      <feGaussianBlur stdDeviation="18"/>
    </filter>
  </defs>

  <rect width="1200" height="520" rx="48" fill="url(#bg)"/>
  <circle cx="950" cy="90" r="220" fill="url(#sun)"/>

  <!-- hills -->
  <path d="M0 356c140-40 240-12 360 22 120 34 252 62 420 20 168-42 290-22 420 30v92H0v-164Z" fill="#CFF3DC"/>
  <path d="M0 392c170-52 310-28 440 14 130 42 230 70 380 30 150-40 250-30 380 10v74H0v-128Z" fill="#BEE9D2"/>

  <!-- sparkles -->
  <g opacity="0.45">
    <circle cx="140" cy="110" r="5" fill="#765FDE"/>
    <circle cx="260" cy="160" r="3" fill="#2BB673"/>
    <circle cx="410" cy="90" r="4" fill="#4EA8FF"/>
    <circle cx="720" cy="140" r="3" fill="#765FDE"/>
    <circle cx="860" cy="180" r="4" fill="#2BB673"/>
  </g>

  <!-- leaf -->
  <g filter="url(#soft)" opacity="0.12">
    <path d="M300 220c70-80 170-70 220-10 50 60 30 150-60 190-90 40-210-10-240-80-26-60 10-80 80-100Z" fill="#2BB673"/>
  </g>
  <path d="M316 238c54-62 132-54 171-8 39 46 24 114-47 145-71 31-165-8-188-63-20-46 8-62 64-74Z" fill="#2BB673" fill-opacity="0.16"/>
</svg>

