<svg width="240" height="240" viewBox="0 0 240 240" fill="none" xmlns="http://www.w3.org/2000/svg">
  <defs>
    <radialGradient id="coin" cx="0" cy="0" r="1" gradientUnits="userSpaceOnUse" gradientTransform="translate(90 72) rotate(50) scale(160 160)">
      <stop stop-color="#FFF8ED"/>
      <stop offset="0.45" stop-color="#FFC857"/>
      <stop offset="1" stop-color="#F59E0B"/>
    </radialGradient>
    <filter id="sh" x="-20%" y="-20%" width="140%" height="140%">
      <feDropShadow dx="0" dy="14" stdDeviation="14" flood-color="#091526" flood-opacity="0.18"/>
    </filter>
  </defs>
  <g filter="url(#sh)">
    <circle cx="120" cy="120" r="92" fill="url(#coin)"/>
    <circle cx="120" cy="120" r="78" fill="none" stroke="#FFFFFF" stroke-opacity="0.55" stroke-width="10"/>
    <path d="M120 74c20 0 36 8 36 18 0 18-22 22-22 36 0 10 14 10 14 22 0 14-12 24-28 24s-28-10-28-24c0-12 14-12 14-22 0-14-22-18-22-36 0-10 16-18 36-18Z" fill="#765FDE" fill-opacity="0.26"/>
    <path d="M140 96c-4-10-14-16-28-16-18 0-32 10-32 22 0 18 22 20 22 34 0 10-14 10-14 22 0 14 12 24 28 24 13 0 24-7 28-18" stroke="#765FDE" stroke-opacity="0.6" stroke-width="10" stroke-linecap="round"/>
  </g>
</svg>

